<svg
    xmlns="http://www.w3.org/2000/svg"
    viewBox="0 0 122 94"
    id="vector">
    <path
        id="path_1"
        d="M 0 58.71 C 0.51 55.84 2 54.07 4.8 54 C 4.487 51.358 5.057 48.685 6.42 46.4 C 7.06 45.417 7.849 44.539 8.76 43.8 C 12.06 41.12 15.76 40.8 19.86 40.09 C 23.96 39.38 27.75 38.77 31.7 38.31 C 36.47 37.74 41.24 37.37 46.01 37.23 C 48.22 37.17 47.69 37.29 49.44 35.94 L 49.5 35.94 L 28.42 15.54 C 25.71 12.72 23.56 12.47 19.96 12.54 L 18.03 12.54 C 17.154 12.285 16.347 11.834 15.671 11.221 C 14.995 10.607 14.468 9.848 14.13 9 L 13.59 7.16 C 13.21 5.88 13.05 5.35 13.97 4.16 C 15.41 2.23 18.18 2.14 20.38 2 C 24.83 1.77 28.38 2.93 31.8 7.29 L 54.91 31.89 C 61.978 27.05 69.418 22.777 77.16 19.11 C 79.253 18.117 81.474 17.424 83.76 17.05 C 83.835 18.228 84.002 19.398 84.26 20.55 C 81.09 21.07 79.39 21.78 75.08 24.07 C 70.27 26.62 65.88 29.43 61.21 32.48 C 60.21 33.12 59.21 33.78 58.29 34.48 L 58.29 40.29 L 86.29 40.29 L 82.63 54.33 L 82.35 55.25 L 81.93 55.6 C 81.24 56.22 80.45 56.85 79.49 57.6 C 79.282 57.728 79.082 57.869 78.89 58.02 C 73.735 61.707 70.108 67.16 68.7 73.34 L 68.61 73.77 L 50.15 73.77 C 54.02 55.97 42.51 48.77 31.94 49.77 C 18.34 51.09 14.76 62 17.09 74 L 5.31 74 C 2 74.13 0.39 71.45 0 66.92 L 0 58.71 Z M 104.25 86.71 C 102.841 88.411 101.101 89.809 99.137 90.82 C 97.172 91.83 95.023 92.432 92.82 92.59 C 104.08 79.66 86.25 68.46 80.35 86 C 75.46 78.64 77.91 70.69 84.62 65.68 C 87.78 63.32 89.43 61.95 90.45 60.34 C 91.019 59.407 91.45 58.396 91.73 57.34 L 97.52 35 C 99.83 26.73 88.45 18.79 96.41 8.44 C 97.819 6.737 99.558 5.337 101.522 4.325 C 103.487 3.313 105.636 2.709 107.84 2.55 C 96.57 15.46 114.41 26.66 120.31 9.13 C 125.2 16.49 122.75 24.44 116.04 29.45 C 113.04 31.64 110.04 32.68 108.57 38.29 L 103.14 59.85 C 102.793 61.058 102.644 62.314 102.7 63.57 C 102.823 64.76 103.109 65.928 103.55 67.04 C 106.03 74.12 109.55 79.74 104.25 86.69 Z M 35.32 61 L 35.32 65.87 L 40.19 65.87 C 39.899 64.692 39.292 63.615 38.433 62.757 C 37.575 61.898 36.498 61.291 35.32 61 Z M 40.19 69 L 35.32 69 L 35.32 73.87 C 36.498 73.579 37.575 72.972 38.433 72.113 C 39.292 71.255 39.899 70.178 40.19 69 Z M 32.19 73.87 L 32.19 69 L 27.28 69 C 27.571 70.178 28.178 71.255 29.037 72.113 C 29.895 72.972 30.972 73.579 32.15 73.87 Z M 27.32 65.87 L 32.19 65.87 L 32.19 61 C 31.012 61.292 29.936 61.9 29.078 62.758 C 28.22 63.616 27.612 64.692 27.32 65.87 Z M 33.78 53.94 C 37.363 53.951 40.798 55.385 43.325 57.925 C 45.852 60.464 47.268 63.907 47.26 67.49 C 47.252 71.073 45.82 74.509 43.282 77.038 C 40.744 79.566 37.303 80.985 33.72 80.98 C 30.137 80.975 26.7 79.546 24.169 77.009 C 21.639 74.473 20.217 71.033 20.22 67.45 C 20.22 65.078 20.845 62.746 22.032 60.692 C 23.218 58.638 24.926 56.932 26.981 55.747 C 29.036 54.561 31.368 53.938 33.74 53.94 Z"
        fill="#393939"
        fill-rule="evenodd"/>
</svg>
