<svg
    xmlns="http://www.w3.org/2000/svg"
    viewBox="0 0 114 122"
    id="vector">
    <path
        id="path"
        d="M 28.21 66.46 C 43.79 66.46 56.42 79.09 56.42 94.67 C 56.42 110.25 43.79 122.88 28.21 122.88 C 12.63 122.88 0 110.25 0 94.67 C 0 79.09 12.64 66.46 28.21 66.46 L 28.21 66.46 L 28.21 66.46 Z M 34.54 81.51 C 36.18 79.84 38.85 79.84 40.5 81.49 C 42.15 83.15 42.16 85.84 40.52 87.51 L 33.32 94.81 L 40.53 102.12 C 42.16 103.77 42.13 106.45 40.48 108.1 C 38.83 109.75 36.17 109.75 34.54 108.09 L 27.38 100.83 L 20.21 108.1 C 18.57 109.77 15.9 109.77 14.25 108.12 C 12.6 106.46 12.59 103.77 14.23 102.1 L 21.43 94.8 L 14.22 87.49 C 12.59 85.84 12.62 83.16 14.27 81.51 C 15.92 79.86 18.58 79.86 20.21 81.52 L 27.37 88.78 L 34.54 81.51 L 34.54 81.51 L 34.54 81.51 Z"
        fill="#d8453e"
        fill-rule="evenodd"/>
    <path
        id="path_1"
        d="M 104.79 17.15 C 105.02 17.26 105.22 17.4 105.42 17.59 C 105.47 17.64 105.51 17.69 105.56 17.74 C 108.01 19.68 110.47 21.88 112.25 24.53 C 114.22 27.46 115.31 30.85 114.65 34.86 C 114.37 36.54 113.73 38.01 112.77 39.31 C 112.07 40.24 111.23 41.05 110.22 41.76 C 110.17 43.06 110.15 44.33 110.15 45.6 C 110.16 47.22 110.21 48.89 110.3 50.61 C 110.51 54.63 111.11 58.69 111.72 62.72 C 112.36 67.05 113.01 71.34 113.18 75.82 C 113.41 81.55 112.73 86.26 110.84 89.59 C 108.73 93.31 105.31 95.29 100.27 95.12 L 100.27 95.12 C 94.25 95.01 90.55 91.63 88.88 85.39 C 87.42 79.93 87.64 72.14 89.3 62.33 C 89.25 54.56 88.24 48.68 86.24 44.72 C 84.93 42.13 83.16 40.42 80.92 39.6 L 80.92 90.46 C 81.65 90.81 82.31 91.28 82.87 91.85 C 84.16 93.14 84.97 94.93 84.97 96.9 L 84.97 101.98 C 84.97 103.26 83.93 104.31 82.64 104.31 L 63.56 104.31 C 64.01 102.8 64.36 101.25 64.62 99.67 L 80.31 99.67 L 80.31 96.92 C 80.31 96.24 80.03 95.62 79.58 95.16 C 79.35 94.93 79.08 94.75 78.78 94.63 L 78.78 94.63 C 78.71 94.64 78.65 94.64 78.59 94.64 L 65.1 94.64 C 65.11 94.31 65.11 93.98 65.11 93.64 C 65.11 92.33 65.04 91.04 64.91 89.77 L 75.21 89.77 C 75.21 63.95 75.21 39.23 75.21 13.44 C 75.21 11.32 74.34 9.38 72.93 7.98 C 71.53 6.58 69.59 5.7 67.47 5.7 L 37.5 5.7 C 35.39 5.7 33.48 6.57 32.08 7.96 C 30.69 9.35 29.82 11.27 29.82 13.38 L 29.82 56.24 C 29.46 56.23 29.52 56.22 28.74 56.22 C 27.96 56.22 25.3 56.28 24.13 56.39 L 24.13 12.33 C 24.13 8.93 25.51 5.85 27.75 3.62 C 29.98 1.38 33.06 0 36.46 0 L 68.53 0 C 71.93 0 75.03 1.39 77.27 3.63 C 79.51 5.87 80.9 8.97 80.9 12.38 L 80.9 34.76 C 85.03 35.66 88.18 38.3 90.37 42.63 C 92.72 47.27 93.89 53.93 93.93 62.54 C 93.93 62.68 93.92 62.81 93.9 62.94 L 93.91 62.94 C 92.34 72.17 92.08 79.37 93.38 84.18 C 94.46 88.23 96.73 90.42 100.38 90.47 L 100.42 90.47 L 100.42 90.47 C 103.53 90.57 105.59 89.43 106.8 87.29 C 108.23 84.76 108.74 80.88 108.54 75.99 C 108.38 71.85 107.74 67.63 107.11 63.38 C 106.5 59.29 105.89 55.16 105.66 50.83 C 105.57 49.12 105.52 47.38 105.51 45.58 C 105.5 44.15 105.53 42.74 105.59 41.36 C 101.25 37.56 98.61 33.75 97.8 29.97 C 97.03 26.38 97.84 22.93 100.35 19.64 C 98.44 18.33 96.5 17.26 94.53 16.41 C 91.84 15.24 89.07 14.45 86.25 13.99 C 84.99 13.79 84.13 12.59 84.33 11.32 C 84.53 10.05 85.73 9.2 87 9.4 C 90.19 9.92 93.32 10.81 96.39 12.14 C 99.26 13.43 102.07 15.07 104.79 17.15 L 104.79 17.15 L 104.79 17.15 Z M 40.26 11.66 L 65.25 11.66 C 66.55 11.66 67.73 12.19 68.58 13.04 C 68.64 13.1 68.7 13.16 68.75 13.23 C 69.51 14.07 69.96 15.17 69.96 16.37 L 69.96 32.31 C 69.96 33.61 69.43 34.79 68.58 35.64 C 67.73 36.49 66.55 37.02 65.25 37.02 L 40.26 37.02 C 38.97 37.02 37.8 36.49 36.94 35.64 L 36.93 35.65 C 36.08 34.8 35.55 33.62 35.55 32.32 L 35.55 16.37 C 35.55 15.07 36.08 13.89 36.93 13.04 C 36.99 12.98 37.05 12.92 37.12 12.87 C 37.96 12.12 39.06 11.66 40.26 11.66 L 40.26 11.66 L 40.26 11.66 Z M 104.02 22.5 C 102.4 24.67 101.86 26.85 102.33 29.04 C 102.9 31.69 104.88 34.51 108.17 37.49 C 108.5 37.19 108.8 36.88 109.04 36.55 C 109.56 35.86 109.91 35.06 110.05 34.14 C 110.49 31.46 109.74 29.16 108.38 27.14 C 107.26 25.44 105.7 23.9 104.02 22.5 L 104.02 22.5 L 104.02 22.5 Z"
        fill="#393939"/>
</svg>
