<svg
    xmlns="http://www.w3.org/2000/svg"
    viewBox="0 0 122 94"
    id="vector">
    <path
        id="path"
        d="M 43.58 92.2 L 31.9 80.53 L 23.86 80.53 C 21.05 80.53 18.75 78.23 18.75 75.42 L 18.75 66.72 L 13.88 66.72 L 13.88 76.9 C 13.88 79.07 12.1 80.85 9.93 80.85 L 3.95 80.85 C 1.78 80.85 0 79.07 0 76.9 L 0 42.4 C 0 40.23 1.78 38.45 3.95 38.45 L 9.93 38.45 C 12.1 38.45 13.88 40.23 13.88 42.4 L 13.88 52.58 L 18.75 52.58 L 18.75 43.22 C 18.75 40.41 21.05 38.11 23.86 38.11 L 32.4 38.11 L 44.47 25.28 C 45.87 24.06 47.73 23.63 49.9 23.72 L 99.63 23.72 C 101.35 23.91 102.66 24.57 103.46 25.81 C 104.26 27.03 104.13 27.72 104.13 29.09 L 104.13 52.58 L 109 52.58 L 109 42.4 C 109 40.23 110.78 38.45 112.95 38.45 L 118.93 38.45 C 121.1 38.45 122.88 40.23 122.88 42.4 L 122.88 76.9 C 122.88 79.07 121.1 80.85 118.93 80.85 L 112.95 80.85 C 110.78 80.85 109 79.07 109 76.9 L 109 66.72 L 104.13 66.72 L 104.13 67.64 C 104.13 70.37 104.21 72.02 102.47 74.28 C 102.14 74.71 101.77 75.12 101.36 75.5 L 83.53 92.96 C 82.64 93.95 81.29 94.49 79.51 94.59 L 49.11 94.59 C 46.84 94.49 44.99 93.71 43.58 92.2 L 43.58 92.2 Z M 63.71 61.78 L 51.07 60.59 L 61.55 37.63 L 75.88 37.63 L 67.75 50.8 L 82.37 52.42 L 55.53 84.64 L 63.71 61.78 L 63.71 61.78 Z M 51.98 0 L 86.48 0 C 88.65 0 90.43 1.78 90.43 3.95 L 90.43 9.93 C 90.43 12.1 88.65 13.88 86.48 13.88 L 76.3 13.88 L 76.3 18.91 L 62.16 18.91 L 62.16 13.88 L 51.98 13.88 C 49.81 13.88 48.03 12.1 48.03 9.93 L 48.03 3.95 C 48.03 1.78 49.81 0 51.98 0 L 51.98 0 Z"
        fill="#393939"
        fill-rule="evenodd"/>
</svg>
