<svg
    xmlns="http://www.w3.org/2000/svg"
    viewBox="0 0 109 122"
    id="vector">
    <path
        id="path"
        d="M 101.41 37.05 C 99.46 39.19 97.19 41.1 94.64 42.65 C 94.33 42.88 93.9 42.91 93.55 42.68 C 89.79 40.29 86.62 37.41 84.14 34.28 C 80.71 29.98 78.55 25.21 77.81 20.62 C 77.06 15.96 77.76 11.48 80.08 7.83 C 81 6.4 82.17 5.08 83.59 3.95 C 86.86 1.35 90.59 -0.03 94.32 0 C 97.9 0.03 101.44 1.36 104.5 4.15 C 105.58 5.13 106.48 6.24 107.22 7.46 C 109.71 11.57 110.25 16.8 109.15 22.11 C 108.07 27.36 105.39 32.69 101.41 37.05 L 101.41 37.05 L 101.41 37.05 Z M 9.82 64.7 L 18.54 64.7 C 19.99 64.7 21.11 65.06 21.89 65.78 C 22.67 66.5 23.06 67.39 23.06 68.45 C 23.06 69.34 22.78 70.11 22.23 70.74 C 21.86 71.17 21.32 71.5 20.61 71.75 C 21.69 72.01 22.49 72.45 23 73.09 C 23.51 73.72 23.76 74.52 23.76 75.48 C 23.76 76.26 23.58 76.96 23.22 77.59 C 22.86 78.21 22.36 78.71 21.73 79.07 C 21.34 79.29 20.75 79.46 19.96 79.56 C 18.91 79.7 18.22 79.77 17.87 79.77 L 9.82 79.77 L 9.82 64.7 L 9.82 64.7 Z M 14.51 70.62 L 16.54 70.62 C 17.27 70.62 17.77 70.49 18.06 70.24 C 18.34 69.99 18.49 69.63 18.49 69.15 C 18.49 68.71 18.35 68.37 18.06 68.12 C 17.78 67.87 17.28 67.75 16.57 67.75 L 14.51 67.75 L 14.51 70.62 L 14.51 70.62 Z M 14.51 76.53 L 16.88 76.53 C 17.68 76.53 18.25 76.39 18.58 76.1 C 18.91 75.82 19.07 75.44 19.07 74.96 C 19.07 74.51 18.91 74.16 18.58 73.89 C 18.25 73.62 17.68 73.48 16.87 73.48 L 14.51 73.48 L 14.51 76.53 L 14.51 76.53 Z M 96.62 21.82 L 91.35 21.82 L 90.59 24.3 L 85.84 24.3 L 91.51 9.23 L 96.61 9.23 L 102.26 24.3 L 97.39 24.3 L 96.62 21.82 L 96.62 21.82 Z M 95.64 18.56 L 94 13.15 L 92.35 18.56 L 95.64 18.56 L 95.64 18.56 Z M 23.88 92.06 C 21.93 94.2 19.66 96.11 17.11 97.66 C 16.8 97.89 16.37 97.92 16.02 97.69 C 12.26 95.29 9.09 92.42 6.61 89.29 C 3.19 85 1.03 80.23 0.29 75.63 C -0.46 70.97 0.24 66.49 2.56 62.85 C 3.47 61.41 4.64 60.1 6.07 58.97 C 9.34 56.37 13.07 54.99 16.79 55.02 C 20.37 55.05 23.91 56.38 26.97 59.17 C 28.05 60.15 28.95 61.26 29.69 62.48 C 32.18 66.59 32.72 71.82 31.62 77.13 C 30.54 82.37 27.86 87.7 23.88 92.06 L 23.88 92.06 L 23.88 92.06 Z M 17.07 103.04 C 21.58 103.04 25.39 106.06 26.59 110.18 L 86.56 110.18 C 89.52 110.18 92.22 108.97 94.18 107.01 C 96.14 105.05 97.35 102.36 97.35 99.39 L 97.35 99.39 C 97.35 96.43 96.14 93.73 94.18 91.77 C 92.22 89.81 89.53 88.6 86.56 88.6 L 65.58 88.6 L 65.58 88.6 C 60.87 88.6 56.59 86.68 53.49 83.58 C 50.39 80.48 48.47 76.2 48.47 71.49 L 48.47 71.49 C 48.47 66.78 50.39 62.5 53.49 59.4 C 56.59 56.3 60.87 54.38 65.58 54.38 L 84.55 54.38 C 85.85 50.42 89.58 47.56 93.97 47.56 C 99.45 47.56 103.89 52 103.89 57.48 C 103.89 62.96 99.45 67.4 93.97 67.4 C 89.62 67.4 85.93 64.6 84.59 60.71 L 65.58 60.71 C 62.62 60.71 59.92 61.92 57.96 63.88 C 56 65.84 54.79 68.53 54.79 71.5 L 54.79 71.5 C 54.79 74.46 56 77.16 57.96 79.12 C 59.9 81.06 62.57 82.27 65.51 82.29 L 65.51 82.29 L 86.57 82.29 C 91.28 82.29 95.56 84.21 98.66 87.31 C 101.76 90.41 103.68 94.69 103.68 99.4 L 103.68 99.4 C 103.68 104.11 101.76 108.39 98.66 111.49 C 95.56 114.59 91.28 116.51 86.57 116.51 L 26.34 116.51 C 24.91 120.24 21.3 122.88 17.07 122.88 C 11.59 122.88 7.15 118.44 7.15 112.96 C 7.15 107.48 11.59 103.04 17.07 103.04 L 17.07 103.04 Z"
        fill="#393939"
        fill-rule="evenodd"/>
</svg>
